<svg id="svg" version="1.1" xmlns="http://www.w3.org/2000/svg" xmlns:xlink="http://www.w3.org/1999/xlink" width="400" height="87.68149882903981" viewBox="0, 0, 400,87.68149882903981"><g id="svgg"><path id="path0" d="M293.333 41.000 L 293.333 67.167 297.000 67.167 L 300.667 67.167 300.667 58.787 C 300.667 47.813,300.877 46.136,302.472 44.407 C 304.490 42.219,308.924 42.081,310.795 44.148 C 312.051 45.535,312.067 45.686,312.129 57.042 L 312.186 67.167 315.843 67.167 L 319.500 67.167 319.499 57.208 C 319.498 51.543,319.424 46.603,319.327 45.750 C 319.155 44.232,318.707 42.153,318.519 42.000 C 318.463 41.954,318.215 41.492,317.967 40.973 C 317.489 39.969,315.939 38.167,315.554 38.167 C 315.427 38.167,315.280 38.055,315.227 37.918 C 315.175 37.781,315.065 37.710,314.983 37.761 C 314.900 37.812,314.833 37.771,314.833 37.671 C 314.833 37.380,312.316 36.427,311.128 36.268 C 310.970 36.246,310.789 36.177,310.726 36.115 C 310.539 35.928,306.698 35.980,306.581 36.171 C 306.522 36.265,306.387 36.326,306.279 36.305 C 305.772 36.210,302.481 37.459,302.249 37.835 C 302.186 37.937,301.973 38.090,301.775 38.175 C 301.578 38.260,301.248 38.452,301.042 38.602 L 300.667 38.874 300.667 26.854 L 300.667 14.833 297.000 14.833 L 293.333 14.833 293.333 41.000 M363.000 41.000 L 363.000 67.167 366.667 67.167 L 370.333 67.167 370.333 65.834 L 370.333 64.501 371.367 65.334 C 371.935 65.792,372.486 66.167,372.591 66.167 C 372.696 66.167,372.984 66.340,373.231 66.553 C 373.732 66.983,375.515 67.607,376.715 67.771 C 377.147 67.830,377.500 67.943,377.500 68.023 C 377.500 68.210,381.286 68.211,381.402 68.023 C 381.451 67.945,381.886 67.832,382.370 67.773 C 383.542 67.630,385.309 67.069,385.868 66.662 C 386.117 66.481,386.366 66.333,386.422 66.333 C 386.720 66.333,388.685 64.801,389.627 63.833 C 390.290 63.153,391.841 60.860,392.097 60.183 C 392.256 59.761,392.441 59.379,392.508 59.333 C 392.695 59.205,393.268 57.223,393.518 55.833 C 394.344 51.256,393.070 44.099,391.073 42.096 C 390.974 41.997,390.624 41.563,390.294 41.130 C 389.544 40.147,387.670 38.471,386.861 38.060 C 386.525 37.890,386.210 37.697,386.161 37.631 C 385.930 37.324,383.950 36.623,382.167 36.217 C 381.485 36.062,377.816 35.970,377.522 36.100 C 377.372 36.167,377.137 36.234,377.000 36.250 C 376.863 36.266,376.637 36.325,376.500 36.382 C 376.363 36.439,375.762 36.645,375.167 36.839 C 374.571 37.033,373.915 37.300,373.710 37.432 C 373.505 37.564,373.288 37.664,373.229 37.655 C 373.169 37.646,373.075 37.702,373.019 37.779 C 372.963 37.856,372.617 38.118,372.250 38.361 C 371.883 38.603,371.335 39.034,371.031 39.317 C 370.728 39.601,370.447 39.833,370.406 39.833 C 370.366 39.833,370.333 34.208,370.333 27.333 L 370.333 14.833 366.667 14.833 L 363.000 14.833 363.000 41.000 M328.211 47.625 C 328.275 58.673,328.390 60.602,329.000 60.806 C 329.092 60.836,329.167 60.938,329.167 61.031 C 329.167 61.326,330.006 62.899,330.386 63.316 C 331.525 64.565,332.833 65.742,333.412 66.038 C 333.775 66.225,334.263 66.515,334.495 66.682 C 335.016 67.059,337.668 67.833,338.435 67.833 C 338.746 67.833,339.000 67.902,339.000 67.985 C 339.000 68.068,339.975 68.145,341.167 68.156 C 342.358 68.167,343.333 68.109,343.333 68.028 C 343.333 67.946,343.727 67.838,344.208 67.787 C 345.265 67.674,347.732 66.911,348.043 66.600 C 348.166 66.477,348.501 66.255,348.787 66.107 C 350.216 65.368,352.009 63.397,352.884 61.601 C 354.047 59.213,354.164 57.825,354.165 46.292 L 354.167 36.833 350.500 36.833 L 346.833 36.833 346.833 45.796 C 346.833 56.934,346.694 58.204,345.303 59.727 C 345.045 60.010,344.833 60.290,344.833 60.351 C 344.833 60.411,344.402 60.671,343.875 60.928 C 341.853 61.913,338.521 61.510,337.370 60.142 C 337.121 59.845,336.801 59.486,336.659 59.343 C 335.616 58.292,335.500 56.985,335.500 46.322 L 335.500 36.833 331.824 36.833 L 328.149 36.833 328.211 47.625 M211.413 52.083 C 211.413 60.425,211.434 63.813,211.458 59.612 C 211.483 55.412,211.483 48.587,211.458 44.446 C 211.433 40.305,211.413 43.742,211.413 52.083 M155.573 42.917 C 155.573 45.483,155.596 46.510,155.625 45.198 C 155.653 43.886,155.653 41.786,155.625 40.532 C 155.596 39.277,155.573 40.350,155.573 42.917 M379.947 42.907 C 381.596 43.256,382.371 43.689,383.579 44.938 C 385.211 46.624,385.838 47.887,386.112 50.042 C 386.168 50.477,386.278 50.833,386.357 50.833 C 386.435 50.833,386.500 51.433,386.500 52.167 C 386.500 52.944,386.431 53.500,386.333 53.500 C 386.242 53.500,386.167 53.732,386.167 54.016 C 386.167 56.573,383.628 60.034,381.043 61.001 C 379.027 61.755,375.028 61.464,374.167 60.499 C 374.121 60.448,373.756 60.170,373.357 59.880 C 370.109 57.531,368.995 51.933,370.868 47.375 C 371.066 46.894,371.283 46.500,371.350 46.500 C 371.417 46.500,371.700 46.128,371.980 45.674 C 372.259 45.220,372.702 44.737,372.964 44.602 C 373.226 44.466,373.539 44.237,373.659 44.092 C 374.530 43.043,377.735 42.439,379.947 42.907 M155.573 61.083 C 155.573 63.650,155.596 64.677,155.625 63.365 C 155.653 62.053,155.653 59.953,155.625 58.698 C 155.596 57.443,155.573 58.517,155.573 61.083 M17.833 60.054 C 17.350 60.308,16.403 61.224,16.165 61.671 C 15.836 62.285,16.142 65.833,16.524 65.833 C 16.592 65.833,16.619 65.983,16.583 66.167 C 16.548 66.350,16.580 66.500,16.655 66.500 C 16.766 66.500,17.156 68.728,17.769 72.869 C 18.079 74.961,19.003 75.334,23.870 75.331 C 29.158 75.327,29.540 75.108,29.843 71.900 C 29.927 71.014,30.063 70.206,30.146 70.103 C 30.228 70.001,30.347 69.504,30.410 69.000 C 30.583 67.603,31.315 64.636,31.589 64.217 C 31.866 63.796,31.920 62.407,31.667 62.250 C 31.575 62.193,31.500 62.027,31.500 61.881 C 31.500 61.497,30.715 60.525,30.106 60.153 C 29.436 59.745,18.590 59.657,17.833 60.054 " stroke="none" fill="#04acdc" fill-rule="evenodd"></path><path id="path1" d="M20.917 0.109 C 17.722 0.489,15.838 0.914,14.417 1.575 C 13.958 1.788,13.115 2.172,12.542 2.429 C 11.969 2.685,11.500 2.940,11.500 2.995 C 11.500 3.051,11.080 3.316,10.568 3.584 C 10.055 3.852,9.549 4.187,9.443 4.328 C 9.337 4.468,8.940 4.794,8.561 5.051 C 7.674 5.653,5.653 7.674,5.051 8.561 C 4.794 8.940,4.468 9.337,4.328 9.443 C 4.187 9.549,3.852 10.055,3.584 10.568 C 3.316 11.080,3.051 11.500,2.995 11.500 C 2.940 11.500,2.685 11.969,2.429 12.542 C 2.172 13.115,1.784 13.965,1.566 14.431 C 0.393 16.936,-0.244 22.058,0.156 25.750 C 0.394 27.936,1.102 31.078,1.431 31.407 C 1.561 31.537,1.667 31.721,1.667 31.816 C 1.667 32.217,2.845 34.667,3.038 34.667 C 3.109 34.667,3.167 34.741,3.167 34.831 C 3.167 35.097,4.192 36.709,4.699 37.240 C 4.956 37.509,5.167 37.797,5.167 37.880 C 5.167 37.962,5.485 38.346,5.875 38.732 C 7.158 40.005,7.579 40.570,8.120 41.745 C 8.414 42.384,8.765 43.035,8.899 43.192 C 9.034 43.349,9.416 44.096,9.748 44.852 C 10.081 45.609,10.448 46.308,10.563 46.406 C 10.679 46.503,11.025 47.146,11.332 47.833 C 11.639 48.521,11.948 49.123,12.018 49.170 C 12.089 49.218,12.429 49.856,12.773 50.587 C 13.117 51.318,13.448 51.954,13.508 52.000 C 13.812 52.233,14.012 52.927,13.998 53.710 C 13.990 54.190,13.976 54.953,13.968 55.405 C 13.956 56.101,14.022 56.286,14.403 56.613 L 14.852 57.000 23.762 57.000 C 32.959 57.000,33.055 56.994,33.627 56.333 C 33.996 55.907,33.805 54.181,33.346 53.810 L 32.967 53.503 33.442 52.464 C 33.703 51.893,35.248 48.767,36.875 45.519 C 38.502 42.270,39.833 39.530,39.833 39.430 C 39.833 39.329,40.119 38.947,40.468 38.582 C 40.817 38.216,41.361 37.543,41.676 37.087 C 41.992 36.631,42.377 36.115,42.532 35.941 C 42.687 35.767,43.014 35.202,43.258 34.687 C 43.502 34.172,43.750 33.712,43.811 33.667 C 44.071 33.469,45.167 30.649,45.167 30.177 C 45.167 30.003,45.239 29.836,45.327 29.806 C 46.457 29.415,46.473 17.765,45.346 16.250 C 45.278 16.158,44.939 15.277,44.593 14.292 C 44.247 13.306,43.908 12.500,43.840 12.500 C 43.772 12.500,43.464 11.994,43.155 11.375 C 42.847 10.756,42.385 10.030,42.130 9.760 C 41.875 9.491,41.667 9.186,41.667 9.084 C 41.667 8.829,38.391 5.476,37.667 4.988 C 37.346 4.772,37.008 4.502,36.917 4.387 C 36.669 4.077,33.722 2.338,33.023 2.090 C 32.689 1.972,32.117 1.718,31.750 1.526 C 29.819 0.517,23.946 -0.251,20.917 0.109 M26.009 19.389 C 27.182 19.871,29.548 21.409,30.476 22.292 C 31.902 23.648,31.207 24.816,28.872 24.988 C 27.495 25.089,26.846 25.373,26.464 26.042 C 26.301 26.328,26.230 28.415,26.167 34.863 C 26.086 43.066,26.073 43.323,25.739 43.780 C 24.957 44.849,23.568 45.078,22.580 44.301 C 21.673 43.587,21.667 43.525,21.667 34.747 C 21.667 24.982,21.672 25.002,19.120 25.001 C 16.766 24.999,15.909 23.669,17.368 22.281 C 19.334 20.411,22.141 19.008,23.917 19.008 C 24.751 19.008,25.347 19.117,26.009 19.389 " stroke="none" fill="#fcdb7c" fill-rule="evenodd"></path><path id="path2" d="M21.825 19.389 C 16.671 21.509,14.989 24.998,19.120 25.001 C 21.672 25.002,21.667 24.982,21.667 34.747 C 21.667 43.525,21.673 43.587,22.580 44.301 C 23.568 45.078,24.957 44.849,25.739 43.780 C 26.073 43.323,26.086 43.066,26.167 34.863 C 26.230 28.415,26.301 26.328,26.464 26.042 C 26.846 25.373,27.495 25.089,28.872 24.988 C 31.207 24.816,31.902 23.648,30.476 22.292 C 28.499 20.411,25.696 19.008,23.917 19.008 C 23.083 19.008,22.486 19.117,21.825 19.389 " stroke="none" fill="#fcfbfb" fill-rule="evenodd"></path><path id="path3" d="M80.495 27.458 C 80.490 37.992,80.453 40.035,80.268 39.792 C 80.146 39.631,79.970 39.500,79.876 39.500 C 79.782 39.500,79.589 39.322,79.446 39.105 C 79.216 38.753,78.324 38.152,76.768 37.300 C 76.483 37.144,75.837 36.899,75.333 36.755 C 74.829 36.611,74.304 36.432,74.167 36.357 C 74.029 36.281,73.748 36.233,73.542 36.249 C 73.335 36.265,73.167 36.215,73.167 36.139 C 73.167 36.062,72.267 36.000,71.167 36.000 C 70.029 36.000,69.167 36.068,69.167 36.157 C 69.167 36.243,68.960 36.293,68.708 36.269 C 68.456 36.245,68.175 36.273,68.083 36.331 C 67.992 36.390,67.504 36.537,67.000 36.658 C 66.165 36.859,65.158 37.314,63.712 38.145 C 63.190 38.445,61.996 39.506,61.272 40.313 C 61.077 40.531,60.762 40.877,60.573 41.081 C 59.336 42.418,57.841 45.435,57.567 47.147 C 57.507 47.521,57.403 47.793,57.335 47.751 C 56.998 47.543,56.759 52.104,57.003 54.083 C 57.116 55.000,57.215 55.881,57.223 56.042 C 57.231 56.202,57.289 56.333,57.350 56.333 C 57.412 56.333,57.512 56.615,57.572 56.958 C 57.714 57.771,58.529 60.067,58.700 60.139 C 58.773 60.169,58.833 60.269,58.833 60.360 C 58.833 60.610,60.233 62.706,60.641 63.067 C 60.839 63.242,61.000 63.477,61.000 63.589 C 61.000 63.702,61.279 64.006,61.619 64.266 C 61.960 64.526,62.367 64.867,62.525 65.025 C 64.562 67.062,70.331 68.708,73.000 68.014 C 73.321 67.930,74.146 67.741,74.833 67.592 C 75.521 67.444,76.496 67.090,77.000 66.806 C 77.504 66.522,78.179 66.155,78.500 65.990 C 78.821 65.826,79.365 65.423,79.709 65.096 C 80.526 64.317,80.500 64.293,80.500 65.833 L 80.500 67.167 84.167 67.167 L 87.833 67.167 87.833 41.000 L 87.833 14.833 84.167 14.833 L 80.500 14.833 80.495 27.458 M163.987 20.217 C 161.860 21.016,160.174 24.687,161.307 26.052 C 161.429 26.199,161.480 26.397,161.421 26.493 C 161.362 26.588,161.380 26.667,161.462 26.667 C 161.544 26.667,161.717 26.872,161.847 27.124 C 162.184 27.775,162.850 28.500,163.111 28.500 C 163.233 28.500,163.333 28.565,163.333 28.644 C 163.333 29.241,166.734 29.509,167.679 28.986 C 167.901 28.863,168.140 28.778,168.208 28.798 C 168.277 28.817,168.333 28.764,168.333 28.680 C 168.333 28.596,168.589 28.369,168.902 28.176 C 170.074 27.451,170.706 24.830,170.179 22.877 C 169.602 20.738,166.335 19.335,163.987 20.217 M205.833 20.279 C 205.421 20.428,204.933 20.715,204.750 20.916 C 203.820 21.934,203.534 22.311,203.624 22.401 C 203.678 22.456,203.642 22.500,203.544 22.500 C 203.240 22.500,202.952 24.121,203.070 25.169 C 203.481 28.803,208.019 30.674,210.659 28.298 C 211.036 27.958,211.394 27.684,211.453 27.689 C 212.057 27.738,212.573 24.336,212.181 22.884 C 211.592 20.703,208.343 19.369,205.833 20.279 M107.439 36.131 C 107.385 36.218,107.152 36.268,106.921 36.242 C 106.690 36.217,106.459 36.265,106.408 36.348 C 106.356 36.432,106.149 36.501,105.948 36.502 C 105.398 36.505,103.474 37.136,103.000 37.468 C 102.771 37.629,102.223 37.946,101.783 38.172 C 100.843 38.655,98.885 40.482,98.348 41.375 C 98.142 41.719,97.918 42.000,97.850 42.000 C 97.783 42.000,97.508 42.469,97.239 43.042 C 96.970 43.615,96.675 44.138,96.583 44.206 C 96.492 44.273,96.482 44.329,96.562 44.331 C 96.642 44.332,96.636 44.427,96.549 44.542 C 94.898 46.714,94.845 57.496,96.476 59.404 C 96.685 59.648,96.691 59.689,96.503 59.578 C 96.367 59.498,96.424 59.645,96.628 59.905 C 96.833 60.166,97.000 60.455,97.000 60.550 C 97.000 60.772,97.966 62.287,98.482 62.872 C 98.702 63.122,98.965 63.489,99.066 63.686 C 99.167 63.884,99.290 64.017,99.339 63.981 C 99.389 63.946,99.751 64.235,100.144 64.625 C 100.538 65.015,100.910 65.335,100.972 65.338 C 101.033 65.341,101.378 65.566,101.738 65.838 C 102.098 66.110,102.492 66.333,102.613 66.333 C 102.734 66.333,102.833 66.400,102.833 66.481 C 102.833 66.562,102.965 66.670,103.125 66.721 C 103.285 66.773,103.856 66.968,104.394 67.155 C 106.530 67.899,112.500 68.516,112.500 67.993 C 112.500 67.905,112.751 67.833,113.057 67.833 C 114.097 67.833,117.152 66.935,117.750 66.453 C 117.842 66.379,118.293 66.079,118.753 65.785 C 120.452 64.699,122.148 62.956,123.542 60.863 C 124.707 59.112,124.710 59.019,123.618 58.521 C 123.141 58.304,122.464 57.944,122.115 57.721 C 121.766 57.498,120.781 56.951,119.927 56.505 L 118.374 55.695 118.188 56.102 C 118.086 56.326,117.890 56.553,117.751 56.606 C 117.613 56.659,117.500 56.797,117.500 56.913 C 117.500 57.198,116.234 58.783,115.432 59.500 C 115.074 59.821,114.598 60.248,114.375 60.450 C 112.488 62.155,107.554 61.717,105.521 59.664 C 103.764 57.889,103.280 56.940,102.913 54.542 L 102.804 53.833 113.569 53.833 L 124.333 53.833 124.330 52.125 C 124.327 50.122,124.057 47.307,123.855 47.175 C 123.778 47.125,123.660 46.783,123.593 46.417 C 123.526 46.050,123.323 45.337,123.142 44.833 C 122.961 44.329,122.781 43.767,122.742 43.583 C 122.703 43.400,122.572 43.175,122.451 43.083 C 122.330 42.992,122.064 42.569,121.860 42.144 C 121.376 41.136,119.515 39.212,118.250 38.412 C 117.700 38.063,117.212 37.735,117.167 37.681 C 116.962 37.442,116.296 37.174,115.071 36.841 C 114.344 36.643,113.638 36.435,113.500 36.380 C 112.835 36.111,107.584 35.896,107.439 36.131 M144.667 36.050 C 144.621 36.095,144.321 36.173,144.000 36.223 C 141.861 36.557,139.438 37.471,137.875 38.534 C 137.485 38.799,137.167 38.985,137.167 38.947 C 137.167 38.850,135.779 40.087,134.679 41.167 C 134.165 41.671,133.746 42.134,133.747 42.196 C 133.749 42.258,133.503 42.588,133.200 42.930 C 132.708 43.486,131.500 45.778,131.500 46.156 C 131.500 46.238,131.443 46.331,131.373 46.361 C 130.427 46.774,130.118 53.837,130.922 56.667 C 131.065 57.171,131.191 57.677,131.202 57.792 C 131.213 57.906,131.285 58.000,131.361 58.000 C 131.438 58.000,131.500 58.088,131.500 58.196 C 131.500 58.476,132.699 60.884,132.938 61.083 C 133.048 61.175,133.324 61.531,133.552 61.873 C 133.780 62.216,134.437 62.929,135.012 63.457 C 135.588 63.985,136.270 64.617,136.529 64.862 C 136.788 65.107,137.000 65.264,137.000 65.211 C 137.000 65.158,137.131 65.232,137.292 65.375 C 138.377 66.343,141.530 67.536,143.619 67.771 C 144.149 67.830,144.660 67.939,144.754 68.012 C 144.963 68.175,149.000 68.161,149.000 67.997 C 149.000 67.932,149.394 67.833,149.875 67.776 C 151.301 67.607,152.661 67.198,154.167 66.487 L 155.583 65.818 155.537 61.159 C 155.486 56.115,155.455 55.969,154.644 57.001 C 153.995 57.827,152.511 59.333,152.347 59.333 C 152.263 59.333,152.169 59.390,152.139 59.458 C 151.498 60.901,146.488 61.981,144.083 61.196 C 142.927 60.819,142.167 60.455,142.167 60.280 C 142.167 60.187,142.123 60.155,142.069 60.209 C 141.833 60.445,139.671 58.281,139.245 57.382 C 139.082 57.039,138.857 56.666,138.744 56.554 C 137.536 55.345,137.714 48.816,138.995 47.339 C 139.181 47.124,139.333 46.880,139.333 46.797 C 139.333 46.360,140.673 44.925,141.667 44.298 C 141.987 44.095,142.343 43.839,142.456 43.729 C 143.485 42.728,147.632 42.425,149.777 43.195 C 151.278 43.733,153.302 45.378,154.750 47.236 C 155.542 48.252,155.583 48.038,155.583 42.917 C 155.583 39.581,155.529 38.167,155.401 38.167 C 155.300 38.167,155.047 38.018,154.837 37.837 C 154.628 37.655,154.398 37.543,154.326 37.588 C 154.254 37.632,154.170 37.598,154.139 37.511 C 154.080 37.344,151.328 36.500,150.842 36.500 C 150.685 36.500,150.503 36.448,150.440 36.384 C 150.200 36.145,144.884 35.837,144.667 36.050 M185.396 36.133 C 185.448 36.218,185.324 36.274,185.121 36.258 C 184.917 36.242,184.675 36.269,184.583 36.318 C 184.492 36.366,183.950 36.569,183.380 36.768 C 181.084 37.572,179.405 39.316,178.313 42.033 C 177.761 43.409,177.518 47.311,177.975 47.464 C 178.070 47.496,178.107 47.629,178.056 47.761 C 178.006 47.892,178.047 48.000,178.149 48.000 C 178.250 48.000,178.333 48.121,178.333 48.268 C 178.333 48.657,179.351 50.508,179.511 50.410 C 179.585 50.364,179.707 50.434,179.781 50.565 C 179.972 50.901,181.455 52.053,182.250 52.482 C 182.617 52.680,183.142 52.978,183.417 53.144 C 183.692 53.311,183.992 53.455,184.083 53.464 C 184.281 53.485,185.880 54.209,186.000 54.332 C 186.046 54.378,186.683 54.713,187.417 55.076 C 188.482 55.602,190.464 57.167,190.065 57.167 C 190.016 57.167,190.094 57.285,190.238 57.429 C 190.628 57.818,190.634 59.260,190.249 59.999 C 188.987 62.424,184.782 61.828,183.342 59.020 C 183.172 58.688,182.879 58.241,182.692 58.027 L 182.351 57.637 181.301 58.063 C 180.723 58.298,179.725 58.762,179.083 59.094 C 178.442 59.427,177.914 59.673,177.911 59.641 C 177.899 59.509,176.500 60.230,176.500 60.368 C 176.500 60.452,176.425 60.473,176.333 60.417 C 176.242 60.360,176.167 60.464,176.167 60.647 C 176.167 60.830,176.240 61.026,176.331 61.082 C 176.421 61.137,176.747 61.686,177.055 62.300 C 177.550 63.286,178.000 63.889,179.250 65.248 C 180.242 66.326,182.709 67.550,184.319 67.764 C 184.785 67.826,185.167 67.931,185.167 67.997 C 185.167 68.715,192.113 67.490,193.046 66.608 C 193.158 66.502,193.681 66.122,194.208 65.763 C 194.735 65.405,195.167 65.067,195.168 65.014 C 195.169 64.960,195.413 64.651,195.710 64.327 C 196.563 63.395,197.196 62.194,197.527 60.877 C 197.627 60.483,197.773 60.120,197.854 60.071 C 198.108 59.914,198.022 56.471,197.740 55.489 C 197.081 53.194,195.951 51.806,193.726 50.557 C 193.210 50.267,192.725 49.930,192.647 49.807 C 192.569 49.684,192.503 49.658,192.500 49.750 C 192.497 49.843,192.441 49.834,192.372 49.729 C 192.305 49.625,191.690 49.303,191.005 49.012 C 190.320 48.721,189.720 48.427,189.671 48.358 C 189.623 48.289,189.000 48.012,188.288 47.743 C 187.575 47.473,186.750 47.046,186.454 46.792 C 186.159 46.539,185.804 46.293,185.667 46.245 C 184.673 45.900,184.440 44.150,185.276 43.314 C 186.442 42.147,188.428 42.700,189.454 44.476 C 189.996 45.415,190.167 45.545,190.496 45.274 C 190.710 45.098,191.548 44.665,191.833 44.583 C 192.133 44.498,192.833 44.095,192.833 44.008 C 192.833 43.951,193.546 43.569,194.416 43.160 C 196.183 42.330,196.152 42.384,195.600 41.138 C 194.841 39.420,192.779 37.414,191.167 36.824 C 190.663 36.640,190.137 36.442,190.000 36.386 C 189.299 36.098,185.236 35.875,185.396 36.133 M232.808 36.081 C 232.756 36.133,232.422 36.184,232.065 36.194 C 231.709 36.205,231.342 36.265,231.250 36.329 C 231.158 36.393,230.637 36.541,230.091 36.659 C 228.998 36.894,227.251 37.602,226.786 37.997 C 226.623 38.136,226.470 38.212,226.446 38.167 C 226.398 38.073,224.948 39.177,224.861 39.374 C 224.831 39.443,224.736 39.500,224.651 39.500 C 224.312 39.500,222.008 41.768,222.003 42.107 C 222.001 42.212,221.896 42.337,221.770 42.386 C 221.643 42.435,221.294 42.912,220.994 43.446 C 220.694 43.980,220.356 44.529,220.242 44.667 C 219.944 45.028,219.000 47.972,219.000 48.539 C 219.000 48.803,218.942 48.984,218.872 48.940 C 218.801 48.897,218.710 49.286,218.670 49.805 C 218.509 51.874,218.621 55.000,218.856 55.000 C 218.914 55.000,219.015 55.356,219.080 55.792 C 219.231 56.809,220.141 59.667,220.315 59.667 C 220.387 59.667,220.659 60.060,220.918 60.542 C 221.468 61.562,221.536 61.645,223.363 63.470 C 225.167 65.272,225.135 65.247,226.895 66.219 C 228.486 67.096,228.829 67.218,230.833 67.613 C 231.521 67.748,232.196 67.917,232.333 67.988 C 232.667 68.160,236.833 68.144,236.833 67.970 C 236.833 67.895,237.062 67.833,237.342 67.833 C 238.352 67.833,241.599 66.978,241.833 66.651 C 241.879 66.587,242.338 66.335,242.854 66.091 C 243.369 65.847,243.950 65.499,244.145 65.317 C 244.340 65.136,244.501 65.046,244.503 65.119 C 244.504 65.191,244.560 65.171,244.628 65.074 C 244.695 64.977,245.092 64.640,245.511 64.324 C 245.929 64.008,246.529 63.450,246.844 63.083 C 247.159 62.717,247.500 62.342,247.602 62.250 C 247.902 61.980,248.833 60.539,248.833 60.345 C 248.833 60.247,248.913 60.167,249.010 60.167 C 249.107 60.167,249.140 60.092,249.083 60.000 C 249.027 59.908,249.060 59.833,249.157 59.833 C 249.254 59.833,249.333 59.755,249.333 59.659 C 249.333 59.563,249.476 59.188,249.651 58.827 C 249.826 58.465,250.065 57.794,250.182 57.335 C 250.300 56.876,250.449 56.500,250.513 56.500 C 250.577 56.500,250.621 56.406,250.610 56.292 C 250.600 56.177,250.690 55.558,250.812 54.917 C 251.070 53.558,250.971 49.122,250.669 48.500 C 250.646 48.454,250.615 48.342,250.600 48.250 C 250.423 47.214,249.515 44.840,249.057 44.219 C 248.842 43.928,248.667 43.635,248.667 43.569 C 248.667 43.502,248.479 43.202,248.250 42.902 C 248.021 42.601,247.833 42.311,247.833 42.257 C 247.833 42.145,246.960 41.164,246.333 40.571 C 245.429 39.718,244.004 38.665,243.068 38.159 C 242.526 37.867,242.046 37.576,242.000 37.512 C 241.901 37.374,239.828 36.718,239.000 36.563 C 238.679 36.502,238.342 36.399,238.250 36.332 C 238.158 36.266,237.877 36.222,237.625 36.236 C 237.373 36.250,237.167 36.210,237.167 36.148 C 237.167 36.011,232.943 35.946,232.808 36.081 M271.750 36.164 C 271.567 36.234,271.366 36.262,271.303 36.226 C 271.241 36.191,271.143 36.237,271.085 36.331 C 271.027 36.424,270.854 36.502,270.698 36.504 C 269.947 36.515,268.034 37.512,266.466 38.711 L 265.849 39.182 265.799 38.049 L 265.750 36.917 262.125 36.872 L 258.500 36.827 258.500 52.000 L 258.500 67.173 262.125 67.128 L 265.750 67.083 265.843 57.917 C 265.961 46.341,266.047 45.806,268.132 43.768 C 269.683 42.252,274.251 42.379,275.786 43.981 C 277.192 45.449,277.327 46.692,277.330 58.292 L 277.333 67.167 281.000 67.167 L 284.667 67.167 284.667 57.037 C 284.667 51.243,284.594 46.304,284.498 45.496 C 284.284 43.707,284.010 42.500,283.817 42.500 C 283.734 42.500,283.667 42.394,283.667 42.266 C 283.667 41.885,282.716 39.878,282.463 39.725 C 282.335 39.647,282.121 39.423,281.988 39.228 C 281.391 38.351,278.974 36.851,277.713 36.574 C 277.458 36.518,277.137 36.430,277.000 36.378 C 276.862 36.326,276.637 36.246,276.500 36.201 C 276.070 36.060,272.100 36.029,271.750 36.164 M162.167 51.997 L 162.167 67.167 165.834 67.167 L 169.502 67.167 169.459 52.042 L 169.417 36.917 165.792 36.872 L 162.167 36.827 162.167 51.997 M204.167 52.000 L 204.167 67.167 207.748 67.167 L 211.330 67.167 211.373 52.000 L 211.417 36.833 207.792 36.833 L 204.167 36.833 204.167 52.000 M74.230 42.844 C 75.779 43.130,78.603 44.734,78.657 45.358 C 78.662 45.418,78.929 45.857,79.250 46.333 C 79.571 46.810,79.833 47.299,79.833 47.420 C 79.833 47.540,79.915 47.666,80.015 47.699 C 81.019 48.034,80.995 56.280,79.989 56.639 C 79.903 56.669,79.833 56.789,79.833 56.905 C 79.833 57.405,77.551 60.167,77.139 60.167 C 77.055 60.167,76.834 60.308,76.649 60.480 C 75.287 61.749,69.887 61.732,68.645 60.455 C 68.447 60.250,68.344 60.196,68.418 60.333 C 68.516 60.517,68.467 60.507,68.234 60.296 C 68.059 60.138,67.635 59.774,67.292 59.487 C 66.948 59.200,66.667 58.858,66.667 58.728 C 66.667 58.597,66.548 58.444,66.403 58.388 C 66.208 58.314,64.690 55.583,64.843 55.583 C 64.857 55.583,64.772 55.246,64.653 54.833 C 64.354 53.788,64.362 50.107,64.666 49.250 C 64.796 48.883,64.909 48.546,64.917 48.500 C 65.092 47.468,67.515 44.167,68.097 44.167 C 68.227 44.167,68.333 44.088,68.333 43.991 C 68.333 43.193,72.127 42.455,74.230 42.844 M112.608 43.098 C 113.129 43.249,113.733 43.551,113.952 43.770 C 114.170 43.988,114.412 44.167,114.490 44.167 C 114.714 44.167,115.667 45.318,115.667 45.589 C 115.667 45.723,115.742 45.833,115.833 45.833 C 115.925 45.833,116.000 45.946,116.000 46.083 C 116.000 46.221,116.066 46.333,116.147 46.333 C 116.228 46.333,116.335 46.502,116.384 46.708 C 116.433 46.915,116.525 47.252,116.589 47.458 L 116.706 47.833 110.002 47.833 C 103.683 47.833,103.305 47.817,103.417 47.542 C 103.482 47.381,103.608 47.002,103.695 46.699 C 103.783 46.396,103.962 46.107,104.094 46.056 C 104.226 46.006,104.333 45.873,104.333 45.762 C 104.333 45.469,105.486 44.167,105.745 44.167 C 105.866 44.167,106.003 44.066,106.050 43.943 C 106.453 42.894,110.232 42.407,112.608 43.098 M237.875 43.163 C 238.493 43.355,239.131 43.651,239.291 43.819 C 239.452 43.987,239.813 44.241,240.094 44.384 C 243.222 45.973,244.547 52.673,242.549 56.794 C 241.922 58.088,239.841 60.461,239.512 60.257 C 239.433 60.209,239.328 60.273,239.279 60.400 C 238.804 61.638,230.500 61.720,230.500 60.486 C 230.500 60.402,230.438 60.352,230.362 60.375 C 230.176 60.431,228.322 58.900,228.438 58.785 C 228.488 58.735,228.381 58.615,228.200 58.518 C 227.659 58.228,226.309 55.432,226.469 54.932 C 226.496 54.849,226.420 54.720,226.300 54.646 C 225.982 54.449,225.992 49.828,226.312 49.442 C 226.438 49.291,226.498 49.167,226.446 49.167 C 226.346 49.167,226.603 48.499,227.253 47.067 C 227.668 46.153,229.652 44.000,230.078 44.000 C 230.219 44.000,230.333 43.935,230.333 43.856 C 230.333 43.659,231.704 43.146,232.917 42.889 C 234.252 42.606,236.485 42.730,237.875 43.163 " stroke="none" fill="#07c2ed" fill-rule="evenodd"></path></g></svg>