<svg id="svg" version="1.1" xmlns="http://www.w3.org/2000/svg" xmlns:xlink="http://www.w3.org/1999/xlink" width="400" height="400" viewBox="0, 0, 400,400"><g id="svgg"><path id="path0" d="M207.400 51.581 C 201.898 52.267,195.067 54.784,188.981 58.366 C 187.080 59.485,185.452 60.400,185.362 60.400 C 184.847 60.400,185.382 59.401,186.647 58.001 C 188.366 56.097,187.923 55.947,184.149 57.152 C 178.318 59.015,173.086 62.178,168.740 66.467 C 167.088 68.098,166.428 68.442,163.524 69.183 C 158.923 70.359,155.192 71.790,151.200 73.912 C 145.435 76.975,142.602 79.245,146.039 78.046 C 147.445 77.556,149.575 77.462,150.574 77.846 C 151.011 78.013,150.208 78.586,148.046 79.649 C 143.366 81.950,131.430 93.918,135.802 91.926 C 137.110 91.330,137.479 91.748,136.652 92.889 C 133.279 97.542,131.562 102.052,130.208 109.819 C 129.323 114.890,129.361 115.101,130.841 113.414 C 132.837 111.141,133.328 111.606,132.008 114.519 C 129.277 120.541,129.679 134.184,132.988 147.800 C 133.774 151.035,133.754 151.200,132.581 151.200 C 128.775 151.200,127.999 159.657,130.985 168.581 C 132.641 173.533,133.423 177.441,133.766 182.489 C 134.366 191.316,140.047 197.277,145.691 195.000 C 146.711 194.588,147.023 195.749,147.785 202.800 C 148.995 214.010,151.545 221.635,156.193 227.948 L 158.070 230.497 157.804 236.148 C 156.958 254.116,159.057 252.205,124.026 266.888 C 112.490 271.723,102.140 276.093,101.026 276.600 C 99.159 277.449,94.850 279.320,87.159 282.619 C 84.347 283.825,80.795 285.525,80.456 285.826 C 80.122 286.124,89.082 298.102,92.554 302.000 C 99.465 309.757,108.797 318.454,114.800 322.731 C 135.470 337.459,154.231 345.387,177.400 349.184 C 178.720 349.400,181.060 349.782,182.600 350.032 C 189.533 351.159,210.222 350.925,220.000 349.609 C 231.022 348.126,245.497 344.155,255.000 340.007 C 256.100 339.527,257.630 338.859,258.400 338.522 C 279.531 329.274,300.626 312.152,314.730 292.800 C 320.445 284.959,320.326 285.913,315.850 283.793 C 313.767 282.807,311.964 282.000,311.842 282.000 C 311.720 282.000,310.451 281.465,309.023 280.811 C 307.595 280.156,305.295 279.149,303.913 278.572 C 302.531 277.996,300.860 277.283,300.200 276.989 C 297.565 275.814,286.998 271.340,271.600 264.881 C 241.865 252.408,243.429 253.976,242.538 235.761 L 242.282 230.522 243.909 228.361 C 248.610 222.120,250.934 215.940,252.168 206.400 C 252.523 203.650,253.012 199.901,253.253 198.068 L 253.692 194.736 254.746 195.060 C 261.146 197.028,265.894 191.614,266.802 181.315 C 267.342 175.185,268.144 171.457,269.626 168.200 C 273.249 160.235,271.015 149.424,266.219 151.710 C 264.406 152.575,264.248 152.194,265.157 149.140 C 265.572 147.743,266.001 146.240,266.110 145.800 C 266.218 145.360,266.669 143.650,267.110 142.000 C 268.449 136.992,269.730 130.346,270.610 123.830 C 272.537 109.563,268.682 96.928,260.436 90.483 C 258.831 89.228,259.682 88.670,262.854 88.897 C 266.041 89.125,265.965 89.260,264.295 86.318 C 259.552 77.960,250.928 71.736,242.504 70.591 C 239.995 70.251,239.200 70.016,239.200 69.616 C 239.200 69.121,242.249 68.000,243.596 68.000 C 245.435 68.000,244.704 67.067,241.879 65.810 C 239.837 64.902,238.643 64.671,235.100 64.502 C 232.735 64.390,230.800 64.168,230.800 64.011 C 230.800 62.861,234.383 61.244,238.100 60.716 C 239.805 60.474,241.200 60.154,241.200 60.006 C 241.200 58.804,230.353 58.402,225.800 59.435 C 221.033 60.517,220.800 60.541,220.800 59.934 C 220.800 58.972,222.037 57.559,223.930 56.358 L 225.757 55.200 222.978 55.203 C 220.359 55.206,216.740 55.561,211.516 56.327 C 207.925 56.853,208.444 55.163,212.673 52.564 C 214.130 51.668,214.152 51.624,213.150 51.612 C 212.572 51.606,211.582 51.528,210.950 51.441 C 210.318 51.354,208.720 51.417,207.400 51.581 " stroke="none" fill="#1c1c1c" fill-rule="evenodd"></path><path id="path1" d="M204.507 51.176 C 203.577 51.328,202.677 51.591,202.507 51.762 C 202.212 52.059,202.829 51.982,206.800 51.229 C 209.032 50.806,207.059 50.760,204.507 51.176 M213.400 51.080 C 213.840 51.183,214.423 51.554,214.696 51.905 C 215.276 52.650,215.806 52.313,215.462 51.417 C 215.309 51.019,214.759 50.816,213.913 50.846 C 213.085 50.876,212.896 50.962,213.400 51.080 M197.400 53.414 C 196.400 53.896,196.366 53.951,197.200 53.748 C 198.333 53.471,199.607 52.821,199.000 52.830 C 198.780 52.833,198.060 53.096,197.400 53.414 M209.883 55.212 C 209.511 55.645,209.364 56.000,209.555 56.000 C 209.995 56.000,210.974 54.841,210.736 54.602 C 210.638 54.504,210.254 54.779,209.883 55.212 M192.300 55.515 C 191.475 55.885,190.800 56.330,190.800 56.502 C 190.800 56.762,193.814 55.451,194.367 54.951 C 194.755 54.600,193.692 54.889,192.300 55.515 M186.600 55.632 C 186.005 55.912,186.184 55.952,187.300 55.786 C 189.122 55.516,189.164 55.807,187.555 57.524 C 186.140 59.034,186.155 59.382,187.601 58.581 C 188.150 58.277,188.347 58.022,188.038 58.014 C 187.700 58.006,187.920 57.618,188.588 57.044 C 190.302 55.571,188.879 54.561,186.600 55.632 M211.800 55.603 C 211.285 55.826,211.713 55.867,213.000 55.718 C 214.100 55.591,215.075 55.423,215.167 55.344 C 215.514 55.045,212.564 55.272,211.800 55.603 M223.370 57.142 C 221.122 58.965,220.890 60.507,223.000 59.600 C 223.735 59.284,223.719 59.253,222.800 59.216 C 221.802 59.177,221.802 59.175,223.138 57.960 C 224.571 56.657,224.751 56.022,223.370 57.142 M227.000 58.294 C 226.120 58.382,225.236 58.615,225.035 58.812 C 224.671 59.169,225.070 59.136,229.600 58.434 C 232.016 58.060,230.284 57.967,227.000 58.294 M236.600 58.423 C 238.737 58.865,240.204 58.850,238.800 58.400 C 238.250 58.224,237.170 58.083,236.400 58.086 L 235.000 58.092 236.600 58.423 M176.500 59.646 C 175.785 60.104,175.200 60.556,175.200 60.650 C 175.200 60.827,176.957 59.931,178.000 59.221 C 179.156 58.434,177.787 58.822,176.500 59.646 M242.167 60.046 C 242.758 60.511,243.355 60.779,243.492 60.641 C 243.806 60.327,242.389 59.230,241.646 59.213 C 241.341 59.206,241.576 59.581,242.167 60.046 M172.900 61.974 C 172.009 62.619,171.134 63.384,170.955 63.674 C 170.776 63.963,171.163 63.787,171.815 63.283 C 172.467 62.778,173.450 62.019,174.000 61.596 C 175.596 60.368,174.684 60.681,172.900 61.974 M237.400 61.180 C 236.942 61.365,237.798 61.416,239.400 61.299 C 240.940 61.186,242.275 61.028,242.367 60.947 C 242.700 60.653,238.178 60.865,237.400 61.180 M232.000 63.400 C 231.576 63.911,231.673 63.993,232.651 63.954 C 233.336 63.926,233.515 63.833,233.095 63.723 C 232.707 63.622,232.493 63.373,232.619 63.170 C 232.983 62.579,232.546 62.742,232.000 63.400 M168.094 66.008 C 166.936 67.104,166.132 68.000,166.309 68.000 C 166.486 68.000,167.517 67.100,168.600 66.000 C 171.137 63.424,170.820 63.429,168.094 66.008 M241.400 65.086 C 242.280 65.441,243.495 66.074,244.100 66.493 C 244.705 66.912,245.200 67.091,245.200 66.892 C 245.200 66.469,241.099 64.390,240.325 64.421 C 240.036 64.432,240.520 64.732,241.400 65.086 M162.000 68.800 C 161.467 69.145,161.467 69.188,162.000 69.188 C 162.330 69.188,162.870 69.013,163.200 68.800 C 163.733 68.455,163.733 68.412,163.200 68.412 C 162.870 68.412,162.330 68.587,162.000 68.800 M240.412 69.184 C 239.586 69.706,239.890 69.855,242.400 70.155 C 243.933 70.339,244.418 70.297,244.000 70.016 C 243.670 69.794,242.770 69.607,242.000 69.600 C 240.948 69.591,240.749 69.491,241.200 69.200 C 241.530 68.987,241.620 68.812,241.400 68.812 C 241.180 68.812,240.735 68.980,240.412 69.184 M159.400 69.485 C 158.960 69.591,158.432 69.837,158.227 70.032 C 158.022 70.227,158.451 70.215,159.181 70.005 C 161.243 69.414,161.417 69.000,159.400 69.485 M153.000 72.224 C 151.020 73.205,149.670 73.928,150.000 73.831 C 150.960 73.547,156.820 70.913,157.089 70.645 C 157.683 70.051,156.343 70.568,153.000 72.224 M245.600 70.800 C 245.930 71.013,246.470 71.188,246.800 71.188 C 247.333 71.188,247.333 71.145,246.800 70.800 C 246.470 70.587,245.930 70.412,245.600 70.412 C 245.067 70.412,245.067 70.455,245.600 70.800 M248.000 71.533 C 248.330 71.736,249.050 72.024,249.600 72.171 C 250.295 72.357,250.417 72.325,250.000 72.067 C 249.670 71.864,248.950 71.576,248.400 71.429 C 247.705 71.243,247.583 71.275,248.000 71.533 M255.864 75.933 C 258.559 78.066,262.531 82.141,263.222 83.481 C 263.539 84.096,263.899 84.690,264.021 84.800 C 264.497 85.228,266.000 88.458,266.000 89.053 C 266.000 89.592,265.588 89.641,263.100 89.400 L 260.200 89.119 262.979 91.930 C 267.537 96.542,269.301 100.465,271.206 110.231 C 271.732 112.929,271.523 122.214,270.846 126.200 C 269.588 133.609,269.205 135.663,268.612 138.200 C 268.253 139.740,267.853 141.589,267.725 142.310 C 267.597 143.030,267.336 143.716,267.146 143.833 C 266.956 143.951,266.798 144.442,266.795 144.924 C 266.792 145.406,266.432 146.941,265.995 148.336 C 265.041 151.379,265.003 151.861,265.770 151.225 C 266.933 150.260,269.689 150.874,270.657 152.314 C 272.328 154.802,272.373 161.648,270.749 166.351 C 268.195 173.745,268.040 174.453,267.189 182.600 C 266.290 191.207,261.062 197.452,255.978 195.994 C 255.223 195.777,254.495 195.600,254.361 195.600 C 254.144 195.600,253.779 197.983,252.984 204.600 C 252.281 210.451,251.911 212.441,250.953 215.513 C 249.607 219.834,247.001 225.120,244.652 228.297 L 242.806 230.794 243.036 235.697 C 243.744 250.837,244.892 252.831,255.600 257.530 C 259.514 259.248,266.045 262.000,266.207 262.000 C 266.301 262.000,267.328 262.432,268.489 262.959 C 269.650 263.487,272.670 264.772,275.200 265.816 C 277.730 266.859,280.733 268.138,281.874 268.657 C 283.015 269.175,284.052 269.600,284.179 269.600 C 284.459 269.600,287.774 271.030,289.332 271.824 C 289.955 272.141,290.617 272.400,290.803 272.400 C 290.989 272.400,292.505 273.030,294.172 273.800 C 295.839 274.570,297.309 275.200,297.437 275.200 C 297.565 275.200,298.837 275.740,300.263 276.400 C 301.689 277.060,302.928 277.600,303.017 277.600 C 303.106 277.600,304.128 278.026,305.289 278.547 C 306.450 279.068,308.750 280.085,310.400 280.807 C 317.117 283.747,320.000 285.185,320.000 285.595 C 320.000 286.100,316.468 291.436,314.502 293.900 C 313.757 294.835,313.293 295.598,313.473 295.595 C 314.027 295.587,320.015 286.942,320.402 285.592 C 320.603 284.892,321.597 282.943,322.612 281.260 C 323.627 279.577,324.631 277.877,324.843 277.482 C 326.191 274.976,327.630 272.333,327.981 271.718 C 328.510 270.793,332.015 262.515,333.197 259.400 C 333.697 258.080,334.257 256.640,334.440 256.200 C 334.965 254.938,336.359 250.588,337.008 248.189 C 337.334 246.985,337.875 244.982,338.211 243.739 C 343.206 225.247,343.787 198.503,339.600 179.800 C 337.646 171.075,333.737 158.057,332.759 157.020 C 332.561 156.811,332.400 156.397,332.400 156.099 C 332.400 155.134,324.371 138.266,323.595 137.600 C 323.467 137.490,322.845 136.500,322.214 135.400 C 319.695 131.008,311.151 118.973,309.436 117.400 C 309.196 117.180,307.925 115.740,306.610 114.200 C 303.267 110.282,296.123 103.272,292.472 100.327 C 290.782 98.964,289.130 97.616,288.800 97.331 C 287.019 95.794,283.207 92.800,283.031 92.800 C 282.919 92.800,281.066 91.572,278.914 90.070 C 275.491 87.682,270.388 84.683,265.500 82.185 C 264.675 81.763,264.000 81.279,264.000 81.109 C 264.000 80.939,263.734 80.800,263.410 80.800 C 262.604 80.800,260.705 79.606,258.900 77.965 C 257.097 76.324,254.554 74.400,254.191 74.400 C 254.046 74.400,254.799 75.090,255.864 75.933 M143.800 77.388 C 143.140 77.929,142.285 78.378,141.900 78.386 C 141.515 78.394,141.200 78.580,141.200 78.800 C 141.200 79.020,141.020 79.200,140.800 79.200 C 140.195 79.200,129.939 84.331,129.191 85.009 C 128.831 85.334,128.356 85.600,128.135 85.600 C 127.914 85.600,126.744 86.275,125.535 87.100 C 122.475 89.188,121.886 89.566,121.200 89.879 C 120.870 90.029,119.480 91.018,118.111 92.076 C 116.743 93.134,115.513 94.000,115.379 94.000 C 115.118 94.000,112.998 95.668,108.803 99.176 C 100.866 105.812,90.824 116.388,86.372 122.800 C 85.837 123.570,85.040 124.572,84.600 125.026 C 84.160 125.480,83.583 126.200,83.317 126.626 C 83.051 127.052,81.351 129.740,79.538 132.600 C 62.581 159.359,54.391 194.927,58.353 224.600 C 58.559 226.140,58.933 228.930,59.185 230.800 C 59.726 234.814,61.872 244.700,62.418 245.695 C 62.628 246.077,62.800 246.714,62.800 247.111 C 62.800 248.189,66.129 258.174,67.563 261.400 C 67.759 261.840,68.148 262.830,68.427 263.600 C 69.587 266.796,75.941 279.270,77.587 281.582 C 78.075 282.268,78.511 283.074,78.555 283.374 C 78.599 283.674,78.827 284.162,79.062 284.460 C 79.297 284.757,79.608 285.495,79.752 286.100 C 79.897 286.705,80.214 287.200,80.457 287.200 C 80.771 287.200,80.767 287.042,80.442 286.651 C 79.970 286.082,80.232 284.800,80.819 284.800 C 81.003 284.800,82.738 284.061,84.676 283.158 C 86.614 282.255,91.350 280.177,95.200 278.541 C 99.050 276.905,102.767 275.304,103.460 274.983 C 104.154 274.662,104.824 274.400,104.950 274.400 C 105.075 274.400,106.128 273.971,107.289 273.446 C 112.027 271.304,113.393 270.713,115.350 269.956 C 116.477 269.520,118.030 268.890,118.800 268.555 C 119.570 268.220,120.560 267.797,121.000 267.614 C 121.440 267.432,122.840 266.814,124.111 266.241 C 125.382 265.669,126.565 265.200,126.740 265.200 C 126.915 265.200,128.173 264.660,129.535 264.000 C 130.898 263.340,132.244 262.800,132.526 262.800 C 132.809 262.800,133.211 262.652,133.420 262.472 C 133.629 262.291,135.060 261.633,136.600 261.009 C 138.140 260.386,139.571 259.723,139.780 259.538 C 139.989 259.352,140.389 259.200,140.669 259.200 C 140.949 259.200,142.128 258.766,143.289 258.235 C 144.450 257.704,146.794 256.632,148.498 255.852 C 155.222 252.777,156.717 249.647,157.088 237.869 L 157.319 230.540 155.202 227.403 C 152.864 223.938,150.133 218.404,149.741 216.334 C 149.601 215.600,149.355 214.820,149.193 214.600 C 148.829 214.106,148.016 209.608,147.565 205.600 C 146.306 194.395,146.615 195.393,144.579 195.955 C 139.389 197.388,133.210 190.080,133.202 182.500 C 133.198 178.383,131.191 169.352,129.620 166.379 C 127.097 161.605,128.873 150.800,132.181 150.800 C 132.820 150.800,133.200 150.576,133.200 150.200 C 133.200 149.870,133.009 149.600,132.776 149.600 C 132.543 149.600,132.434 149.465,132.533 149.300 C 132.632 149.135,132.456 147.830,132.141 146.400 C 129.242 133.237,129.005 116.926,131.666 113.720 C 132.014 113.301,131.975 113.235,131.487 113.422 C 131.143 113.554,130.593 114.323,130.265 115.131 C 128.966 118.338,128.887 113.482,130.136 107.200 C 131.125 102.226,133.228 96.508,134.804 94.505 C 135.834 93.194,135.818 92.655,134.766 93.218 C 132.873 94.231,133.331 92.711,135.800 89.779 C 140.623 84.052,144.115 80.928,147.800 79.044 C 150.114 77.860,149.365 77.688,145.865 78.600 C 141.945 79.621,141.664 79.049,145.042 76.924 C 145.459 76.661,145.620 76.437,145.400 76.426 C 145.180 76.414,144.460 76.847,143.800 77.388 M82.264 290.000 C 82.654 290.660,83.119 291.200,83.298 291.200 C 83.477 291.200,83.225 290.660,82.737 290.000 C 82.249 289.340,81.783 288.800,81.702 288.800 C 81.621 288.800,81.874 289.340,82.264 290.000 M83.600 291.864 C 83.600 292.082,84.095 292.697,84.700 293.230 L 85.800 294.200 84.800 293.000 C 84.250 292.340,83.755 291.725,83.700 291.633 C 83.645 291.542,83.600 291.645,83.600 291.864 M87.058 296.441 C 87.559 297.380,89.609 299.725,89.776 299.550 C 89.855 299.468,89.198 298.590,88.318 297.600 C 87.437 296.610,86.870 296.088,87.058 296.441 M310.662 298.838 C 309.376 300.388,308.390 301.723,308.471 301.805 C 308.610 301.944,312.226 297.649,312.920 296.520 C 313.593 295.425,312.917 296.119,310.662 298.838 M90.681 300.987 C 91.077 301.531,91.566 301.981,91.770 301.987 C 91.973 301.994,91.717 301.550,91.200 301.000 C 90.001 299.723,89.757 299.718,90.681 300.987 M92.610 303.173 C 93.882 304.738,94.855 305.679,95.026 305.507 C 95.114 305.420,94.428 304.640,93.503 303.774 C 92.577 302.908,92.176 302.638,92.610 303.173 M300.800 309.564 C 298.270 312.133,294.940 315.373,293.400 316.765 C 291.860 318.157,290.960 319.055,291.400 318.760 C 291.840 318.465,292.499 317.949,292.864 317.612 C 302.553 308.684,306.532 304.744,305.757 304.847 C 305.560 304.873,303.330 306.996,300.800 309.564 M95.612 306.207 C 95.600 306.615,102.742 313.762,105.000 315.603 C 105.660 316.141,103.995 314.454,101.300 311.855 C 98.605 309.256,96.226 306.831,96.012 306.465 C 95.799 306.099,95.619 305.983,95.612 306.207 M106.400 316.606 C 106.400 316.933,107.020 317.515,109.100 319.139 C 111.496 321.011,111.213 320.509,108.600 318.253 C 107.390 317.209,106.400 316.467,106.400 316.606 M288.391 320.752 C 283.197 324.909,282.674 325.630,287.600 321.842 C 289.030 320.743,290.275 319.788,290.367 319.721 C 290.458 319.655,290.458 319.534,290.367 319.452 C 290.275 319.371,289.386 319.956,288.391 320.752 M111.200 320.685 C 111.200 320.871,111.577 321.288,112.037 321.612 C 112.498 321.935,113.245 322.515,113.699 322.900 C 114.152 323.285,114.585 323.600,114.661 323.600 C 115.046 323.600,114.641 323.166,113.000 321.821 C 112.010 321.010,111.200 320.499,111.200 320.685 M118.000 325.782 C 118.000 325.885,119.035 326.666,120.300 327.515 C 123.101 329.398,123.600 329.695,123.600 329.482 C 123.600 329.392,122.340 328.480,120.800 327.455 C 119.260 326.431,118.000 325.678,118.000 325.782 M279.290 327.366 C 276.854 329.036,275.581 330.073,276.800 329.394 C 278.075 328.685,282.000 325.961,282.000 325.785 C 282.000 325.510,281.998 325.511,279.290 327.366 M125.000 330.564 C 125.660 331.132,126.339 331.597,126.508 331.598 C 126.677 331.599,127.549 332.063,128.446 332.629 C 129.342 333.195,130.157 333.577,130.256 333.477 C 130.420 333.314,129.129 332.506,125.200 330.314 L 123.800 329.532 125.000 330.564 M271.062 332.447 C 270.216 332.893,269.609 333.342,269.712 333.445 C 269.902 333.636,272.800 332.055,272.800 331.760 C 272.800 331.534,272.771 331.545,271.062 332.447 M265.100 335.647 C 264.275 336.072,263.600 336.502,263.600 336.603 C 263.600 336.754,266.192 335.697,266.767 335.312 C 267.553 334.784,266.278 335.041,265.100 335.647 M137.020 337.155 C 137.229 337.350,137.850 337.628,138.400 337.772 L 139.400 338.033 138.400 337.431 C 137.286 336.759,136.409 336.584,137.020 337.155 M261.599 337.449 L 260.600 338.033 261.600 337.767 C 262.714 337.470,263.014 337.281,262.766 337.033 C 262.674 336.941,262.149 337.128,261.599 337.449 M146.000 341.133 C 146.330 341.336,147.050 341.624,147.600 341.771 C 148.295 341.957,148.417 341.925,148.000 341.667 C 147.670 341.464,146.950 341.176,146.400 341.029 C 145.705 340.843,145.583 340.875,146.000 341.133 M252.600 341.414 C 251.600 341.896,251.566 341.951,252.400 341.748 C 253.533 341.471,254.807 340.821,254.200 340.830 C 253.980 340.833,253.260 341.096,252.600 341.414 M149.020 342.372 C 149.229 342.576,149.940 342.855,150.600 342.991 C 151.796 343.239,151.795 343.237,150.454 342.620 C 148.919 341.913,148.472 341.835,149.020 342.372 M154.600 344.400 C 154.736 344.620,155.242 344.787,155.724 344.772 C 156.569 344.745,156.571 344.731,155.800 344.400 C 154.699 343.927,154.308 343.927,154.600 344.400 M243.800 344.602 L 242.600 345.167 243.800 344.932 C 244.460 344.803,245.171 344.540,245.380 344.348 C 245.950 343.826,245.187 343.948,243.800 344.602 M240.400 345.600 C 239.867 345.945,239.867 345.988,240.400 345.988 C 240.730 345.988,241.270 345.813,241.600 345.600 C 242.133 345.255,242.133 345.212,241.600 345.212 C 241.270 345.212,240.730 345.387,240.400 345.600 M161.200 346.366 C 161.530 346.554,162.430 346.817,163.200 346.951 L 164.600 347.193 163.200 346.627 C 161.574 345.970,160.187 345.789,161.200 346.366 M237.000 346.607 L 235.400 347.152 237.000 346.928 C 237.880 346.804,238.771 346.545,238.980 346.351 C 239.498 345.873,238.945 345.944,237.000 346.607 M165.600 347.600 C 165.930 347.813,166.650 347.973,167.200 347.954 L 168.200 347.920 167.200 347.600 C 165.658 347.106,164.836 347.106,165.600 347.600 M232.800 347.600 L 231.800 347.920 232.876 347.960 C 233.468 347.982,234.064 347.820,234.200 347.600 C 234.481 347.145,234.220 347.145,232.800 347.600 M228.823 348.436 C 227.846 348.628,226.856 348.873,226.623 348.981 C 225.929 349.303,230.131 348.717,231.000 348.370 C 232.028 347.960,231.110 347.988,228.823 348.436 M170.800 348.800 C 171.350 348.976,172.160 349.120,172.600 349.120 C 173.233 349.120,173.192 349.054,172.400 348.800 C 171.850 348.624,171.040 348.480,170.600 348.480 C 169.967 348.480,170.008 348.546,170.800 348.800 M175.600 349.579 C 175.930 349.804,176.725 349.991,177.367 349.994 C 178.904 350.002,178.584 349.770,176.600 349.438 C 175.454 349.246,175.170 349.286,175.600 349.579 M222.600 349.600 L 221.400 349.905 222.600 349.947 C 223.260 349.969,224.070 349.813,224.400 349.600 C 225.143 349.120,224.487 349.120,222.600 349.600 M183.800 350.823 C 184.680 351.005,186.030 351.142,186.800 351.127 C 188.105 351.102,188.078 351.078,186.400 350.780 C 183.850 350.326,181.579 350.364,183.800 350.823 M213.200 350.800 L 211.400 351.080 213.000 351.117 C 213.880 351.137,215.320 351.005,216.200 350.823 L 217.800 350.492 216.400 350.506 C 215.630 350.514,214.190 350.646,213.200 350.800 M195.333 351.625 C 197.277 351.797,201.057 351.799,203.733 351.628 C 208.318 351.335,208.114 351.317,200.200 351.314 C 193.423 351.312,192.483 351.372,195.333 351.625 " stroke="none" fill="#dadada" fill-rule="evenodd"></path><path id="path2" d="M207.200 51.224 C 206.050 51.486,206.263 51.535,208.400 51.501 C 209.830 51.477,211.720 51.496,212.600 51.542 L 214.200 51.625 212.673 52.564 C 208.338 55.228,207.929 56.839,211.717 56.327 C 215.310 55.842,215.484 55.588,212.030 55.872 C 209.078 56.116,209.064 56.112,209.830 55.328 C 211.202 53.921,213.458 52.400,214.171 52.400 C 215.168 52.400,214.722 51.473,213.570 51.151 C 212.278 50.790,208.939 50.828,207.200 51.224 M203.400 51.794 C 203.180 51.865,201.470 52.412,199.600 53.009 C 197.730 53.607,193.995 55.237,191.300 56.633 C 186.023 59.367,185.775 59.424,187.598 57.478 C 188.257 56.775,188.797 56.057,188.798 55.882 C 188.802 55.171,180.745 57.516,179.800 58.501 C 179.525 58.788,179.649 58.819,180.200 58.601 C 186.966 55.921,188.669 55.763,186.647 58.001 C 185.382 59.401,184.847 60.400,185.362 60.400 C 185.452 60.400,187.080 59.485,188.981 58.366 C 193.120 55.930,198.954 53.437,202.914 52.414 C 204.501 52.004,205.350 51.667,204.800 51.666 C 204.250 51.664,203.620 51.722,203.400 51.794 M216.400 55.203 C 215.630 55.367,217.430 55.413,220.400 55.306 L 225.800 55.111 223.952 56.314 C 220.954 58.265,219.679 60.720,221.900 60.266 C 226.910 59.241,227.716 59.030,227.114 58.898 C 226.736 58.815,225.327 59.029,223.982 59.373 C 220.875 60.169,220.983 60.193,221.824 58.900 C 222.708 57.541,223.429 56.950,225.100 56.214 C 227.464 55.172,226.639 54.797,222.100 54.853 C 219.735 54.882,217.170 55.039,216.400 55.203 M230.200 58.400 C 229.120 58.593,230.096 58.690,233.200 58.697 C 236.627 58.705,237.392 58.624,236.200 58.377 C 234.335 57.991,232.442 57.999,230.200 58.400 M177.200 59.672 C 173.150 62.157,171.314 63.495,169.050 65.613 C 167.678 66.896,166.026 68.062,165.378 68.205 C 164.730 68.348,163.750 68.616,163.200 68.800 C 162.650 68.984,161.684 69.248,161.053 69.387 C 160.422 69.526,159.994 69.727,160.102 69.835 C 160.866 70.599,166.962 68.222,168.740 66.467 C 171.666 63.580,177.245 59.600,178.367 59.600 C 178.579 59.600,178.864 59.420,179.000 59.200 C 179.392 58.565,178.715 58.743,177.200 59.672 M239.500 59.305 C 241.527 59.792,241.692 60.288,239.900 60.511 C 239.009 60.621,239.261 60.692,240.700 60.736 C 241.855 60.771,242.800 60.707,242.800 60.594 C 242.800 60.062,240.068 58.808,239.000 58.850 C 237.937 58.891,237.994 58.943,239.500 59.305 M235.600 61.067 C 233.128 61.909,230.800 63.337,230.800 64.011 C 230.800 64.168,232.735 64.388,235.100 64.498 C 239.524 64.705,243.710 66.011,244.520 67.437 C 244.856 68.029,245.604 68.212,245.595 67.700 C 245.571 66.236,239.130 64.000,234.936 64.000 C 230.491 64.000,231.283 62.845,236.800 61.279 C 237.933 60.958,238.009 60.880,237.200 60.872 C 236.650 60.867,235.930 60.955,235.600 61.067 M240.700 68.663 C 238.309 69.655,238.701 70.075,242.504 70.591 C 250.928 71.736,259.552 77.960,264.295 86.318 C 265.965 89.260,266.041 89.125,262.854 88.897 C 259.682 88.670,258.831 89.228,260.436 90.483 C 271.675 99.267,273.915 116.559,267.110 142.000 C 266.669 143.650,266.218 145.360,266.110 145.800 C 266.001 146.240,265.572 147.743,265.157 149.140 C 264.248 152.194,264.406 152.575,266.219 151.710 C 271.015 149.424,273.249 160.235,269.626 168.200 C 268.144 171.457,267.342 175.185,266.802 181.315 C 265.894 191.614,261.146 197.028,254.746 195.060 L 253.692 194.736 253.253 198.068 C 253.012 199.901,252.523 203.650,252.168 206.400 C 250.934 215.940,248.610 222.120,243.909 228.361 L 242.282 230.522 242.538 235.761 C 243.429 253.976,241.865 252.408,271.600 264.881 C 286.998 271.340,297.565 275.814,300.200 276.989 C 300.860 277.283,302.531 277.996,303.913 278.572 C 305.295 279.149,307.595 280.156,309.023 280.811 C 310.451 281.465,311.720 282.000,311.842 282.000 C 313.569 282.000,319.578 285.694,319.151 286.493 C 310.969 301.793,285.778 324.674,266.000 334.769 C 262.737 336.434,260.940 337.575,262.538 336.966 C 279.336 330.569,304.842 308.530,317.921 289.114 C 320.746 284.920,321.371 285.609,310.400 280.807 C 308.750 280.085,306.450 279.068,305.289 278.547 C 304.128 278.026,303.106 277.600,303.017 277.600 C 302.928 277.600,301.689 277.060,300.263 276.400 C 298.837 275.740,297.565 275.200,297.437 275.200 C 297.309 275.200,295.839 274.570,294.172 273.800 C 292.505 273.030,290.989 272.400,290.803 272.400 C 290.617 272.400,289.955 272.141,289.332 271.824 C 287.774 271.030,284.459 269.600,284.179 269.600 C 284.052 269.600,283.015 269.175,281.874 268.657 C 280.733 268.138,277.730 266.859,275.200 265.816 C 272.670 264.772,269.650 263.487,268.489 262.959 C 267.328 262.432,266.301 262.000,266.207 262.000 C 266.045 262.000,259.514 259.248,255.600 257.530 C 244.892 252.831,243.744 250.837,243.036 235.697 L 242.806 230.794 244.652 228.297 C 247.001 225.120,249.607 219.834,250.953 215.513 C 251.911 212.441,252.281 210.451,252.984 204.600 C 253.779 197.983,254.144 195.600,254.361 195.600 C 254.495 195.600,255.223 195.777,255.978 195.994 C 261.062 197.452,266.290 191.207,267.189 182.600 C 268.040 174.453,268.195 173.745,270.749 166.351 C 272.373 161.648,272.328 154.802,270.657 152.314 C 269.689 150.874,266.933 150.260,265.770 151.225 C 265.003 151.861,265.041 151.379,265.995 148.336 C 266.432 146.941,266.792 145.406,266.795 144.924 C 266.798 144.442,266.956 143.951,267.146 143.833 C 267.336 143.716,267.597 143.030,267.725 142.310 C 267.853 141.589,268.253 139.740,268.612 138.200 C 269.205 135.663,269.588 133.609,270.846 126.200 C 271.523 122.214,271.732 112.929,271.206 110.231 C 269.301 100.465,267.537 96.542,262.979 91.930 L 260.200 89.119 263.100 89.400 C 265.588 89.641,266.000 89.592,266.000 89.053 C 266.000 88.316,264.381 85.061,263.918 84.867 C 263.743 84.793,263.600 84.520,263.600 84.259 C 263.600 82.812,256.791 76.241,252.870 73.906 C 249.951 72.167,245.255 70.501,242.300 70.158 C 238.924 69.765,239.281 69.316,243.800 68.277 C 244.328 68.155,244.192 68.084,243.400 68.067 C 242.740 68.053,241.525 68.321,240.700 68.663 M157.642 70.434 C 157.115 70.645,156.779 70.912,156.895 71.029 C 157.012 71.145,157.713 70.976,158.453 70.653 C 159.926 70.010,159.194 69.813,157.642 70.434 M150.600 73.739 C 142.153 78.295,140.493 79.999,145.865 78.600 C 149.365 77.688,150.114 77.860,147.800 79.044 C 144.115 80.928,140.623 84.052,135.800 89.779 C 133.331 92.711,132.873 94.231,134.766 93.218 C 135.818 92.655,135.834 93.194,134.804 94.505 C 133.228 96.508,131.125 102.226,130.136 107.200 C 128.887 113.482,128.966 118.338,130.265 115.131 C 130.593 114.323,131.143 113.554,131.487 113.422 C 131.972 113.236,132.013 113.302,131.672 113.714 C 130.972 114.556,129.996 118.793,130.042 120.784 C 130.079 122.366,130.145 122.213,130.553 119.600 C 130.811 117.950,131.502 115.565,132.089 114.300 C 133.346 111.590,132.790 111.195,130.841 113.414 C 129.361 115.101,129.323 114.890,130.208 109.819 C 131.562 102.052,133.279 97.542,136.652 92.889 C 137.479 91.748,137.110 91.330,135.802 91.926 C 131.430 93.918,143.366 81.950,148.046 79.649 C 150.208 78.586,151.011 78.013,150.574 77.846 C 149.575 77.462,147.445 77.556,146.039 78.046 C 142.680 79.217,145.356 77.037,151.000 74.005 C 154.511 72.118,154.703 71.997,154.167 72.007 C 153.965 72.010,152.360 72.790,150.600 73.739 M129.737 125.800 C 129.739 127.560,129.809 128.230,129.893 127.289 C 129.978 126.349,129.977 124.909,129.891 124.089 C 129.805 123.270,129.736 124.040,129.737 125.800 M130.069 131.400 C 130.023 134.661,130.809 140.353,132.141 146.400 C 132.456 147.830,132.632 149.135,132.533 149.300 C 132.434 149.465,132.543 149.600,132.776 149.600 C 133.009 149.600,133.200 149.870,133.200 150.200 C 133.200 150.576,132.820 150.800,132.181 150.800 C 128.873 150.800,127.097 161.605,129.620 166.379 C 131.191 169.352,133.198 178.383,133.202 182.500 C 133.210 190.080,139.389 197.388,144.579 195.955 C 146.615 195.393,146.306 194.395,147.565 205.600 C 148.016 209.608,148.829 214.106,149.193 214.600 C 149.355 214.820,149.601 215.600,149.741 216.334 C 150.133 218.404,152.864 223.938,155.203 227.405 L 157.321 230.543 157.116 238.171 C 156.888 246.674,157.337 245.436,157.778 236.344 L 158.063 230.487 156.190 227.944 C 151.545 221.636,148.995 214.007,147.785 202.800 C 147.023 195.749,146.711 194.588,145.691 195.000 C 140.047 197.277,134.366 191.316,133.766 182.489 C 133.423 177.441,132.641 173.533,130.985 168.581 C 127.999 159.657,128.775 151.200,132.581 151.200 C 133.800 151.200,133.795 151.282,132.840 147.115 C 131.831 142.710,131.178 138.732,130.589 133.400 C 130.189 129.781,130.097 129.426,130.069 131.400 M155.829 248.411 C 154.849 251.683,152.581 253.985,148.498 255.852 C 146.794 256.632,144.450 257.704,143.289 258.235 C 142.128 258.766,140.949 259.200,140.669 259.200 C 140.389 259.200,139.989 259.352,139.780 259.538 C 139.571 259.723,138.140 260.386,136.600 261.009 C 135.060 261.633,133.629 262.291,133.420 262.472 C 133.211 262.652,132.809 262.800,132.526 262.800 C 132.244 262.800,130.898 263.340,129.535 264.000 C 128.173 264.660,126.915 265.200,126.740 265.200 C 126.565 265.200,125.382 265.672,124.111 266.248 C 122.840 266.824,121.170 267.557,120.400 267.875 C 119.630 268.194,118.640 268.617,118.200 268.816 C 117.760 269.015,116.477 269.531,115.350 269.963 C 113.396 270.712,112.064 271.287,107.289 273.446 C 106.128 273.971,105.075 274.400,104.950 274.400 C 104.824 274.400,104.154 274.662,103.460 274.983 C 102.767 275.304,99.050 276.905,95.200 278.541 C 91.350 280.177,86.614 282.255,84.676 283.158 C 82.738 284.061,81.003 284.800,80.819 284.800 C 77.143 284.800,94.443 306.242,106.200 316.258 C 115.985 324.593,128.066 332.698,136.282 336.436 C 137.337 336.916,139.445 337.915,140.966 338.655 C 142.487 339.395,143.927 339.997,144.166 339.994 C 144.405 339.990,141.540 338.484,137.800 336.647 C 129.154 332.401,123.964 329.261,114.800 322.731 C 108.797 318.454,99.465 309.757,92.554 302.000 C 89.082 298.102,80.122 286.124,80.456 285.826 C 80.795 285.525,84.347 283.825,87.159 282.619 C 94.850 279.320,99.159 277.449,101.026 276.600 C 102.140 276.093,112.490 271.723,124.026 266.888 C 155.237 253.807,155.697 253.535,156.644 247.617 C 157.017 245.283,156.663 245.629,155.829 248.411 M259.000 338.196 C 257.900 338.717,256.050 339.541,254.888 340.026 C 253.726 340.512,252.857 340.990,252.955 341.089 C 253.157 341.290,254.875 340.582,259.000 338.596 C 260.540 337.854,261.620 337.248,261.400 337.248 C 261.180 337.248,260.100 337.675,259.000 338.196 M145.000 340.274 C 145.347 340.614,149.429 342.200,156.100 344.587 C 157.146 344.960,158.224 345.192,158.496 345.101 C 158.769 345.010,157.644 344.529,155.996 344.031 C 154.348 343.533,151.380 342.495,149.400 341.726 C 144.366 339.769,144.544 339.827,145.000 340.274 M246.509 343.139 C 243.599 344.163,241.380 345.055,241.578 345.123 C 241.977 345.259,248.484 343.078,251.000 341.964 C 253.741 340.752,252.016 341.203,246.509 343.139 M159.800 345.580 C 160.856 346.011,164.640 347.062,166.400 347.414 C 168.975 347.928,167.441 347.299,163.546 346.244 C 159.733 345.211,158.251 344.948,159.800 345.580 M238.456 345.659 C 237.717 345.872,237.204 346.137,237.316 346.249 C 237.545 346.479,240.800 345.671,240.800 345.385 C 240.800 345.120,240.003 345.214,238.456 345.659 M232.082 347.296 C 230.258 347.737,228.849 348.182,228.952 348.285 C 229.154 348.488,236.800 346.798,236.800 346.551 C 236.800 346.271,235.416 346.490,232.082 347.296 M170.712 348.354 C 173.594 349.085,178.329 349.795,177.977 349.443 C 177.785 349.252,171.596 348.084,169.200 347.788 C 168.430 347.693,169.110 347.947,170.712 348.354 M224.426 348.854 C 221.544 349.332,221.215 349.731,224.007 349.363 C 226.513 349.032,228.712 348.461,227.400 348.481 C 226.960 348.488,225.622 348.656,224.426 348.854 M179.800 350.023 C 180.680 350.205,182.120 350.344,183.000 350.331 L 184.600 350.308 183.000 349.977 C 182.120 349.795,180.680 349.656,179.800 349.669 L 178.200 349.692 179.800 350.023 M217.000 350.000 L 215.800 350.305 217.200 350.330 C 217.970 350.343,219.320 350.205,220.200 350.023 L 221.800 349.692 220.000 349.693 C 219.010 349.694,217.660 349.832,217.000 350.000 M186.800 350.870 C 189.114 351.218,210.369 351.213,213.000 350.865 C 214.100 350.719,208.250 350.600,200.000 350.600 C 191.750 350.600,185.810 350.722,186.800 350.870 " stroke="none" fill="#a4a4a3" fill-rule="evenodd"></path><path id="path3" d="M0.000 200.000 L 0.000 400.000 200.000 400.000 L 400.000 400.000 400.000 200.000 L 400.000 0.000 200.000 0.000 L 0.000 0.000 0.000 200.000 M215.511 51.632 C 215.594 52.062,215.145 52.410,214.102 52.722 C 212.667 53.152,209.761 55.495,210.163 55.897 C 210.264 55.997,210.943 55.884,211.673 55.644 C 214.459 54.729,226.800 54.336,226.800 55.162 C 226.800 55.635,225.869 56.400,225.293 56.400 C 224.993 56.400,224.084 57.028,223.273 57.797 L 221.800 59.193 223.220 59.197 C 224.001 59.198,224.836 59.004,225.076 58.764 C 225.926 57.914,236.397 57.797,239.506 58.604 C 244.794 59.975,244.828 60.738,239.624 61.260 C 235.313 61.693,231.604 63.055,233.137 63.642 C 233.652 63.840,234.236 63.901,234.434 63.779 C 235.167 63.326,240.958 64.438,242.871 65.398 C 246.567 67.255,246.801 68.178,243.691 68.627 C 241.230 68.982,240.120 69.571,241.881 69.588 C 242.586 69.595,243.576 69.757,244.081 69.950 C 244.587 70.142,245.990 70.616,247.200 71.004 C 249.534 71.752,253.310 73.598,253.533 74.100 C 253.607 74.265,253.844 74.400,254.060 74.400 C 254.538 74.400,256.865 76.113,258.900 77.965 C 260.705 79.606,262.604 80.800,263.410 80.800 C 263.734 80.800,264.000 80.939,264.000 81.109 C 264.000 81.279,264.675 81.763,265.500 82.185 C 270.388 84.683,275.491 87.682,278.914 90.070 C 281.066 91.572,282.919 92.800,283.031 92.800 C 283.207 92.800,287.019 95.794,288.800 97.331 C 289.130 97.616,290.782 98.964,292.472 100.327 C 296.123 103.272,303.267 110.282,306.610 114.200 C 307.925 115.740,309.196 117.180,309.436 117.400 C 311.151 118.973,319.695 131.008,322.214 135.400 C 322.845 136.500,323.467 137.490,323.595 137.600 C 324.371 138.266,332.400 155.134,332.400 156.099 C 332.400 156.397,332.561 156.811,332.759 157.020 C 333.359 157.656,337.068 169.120,338.189 173.800 C 339.980 181.287,340.040 181.600,341.183 189.400 C 343.617 206.006,342.402 228.226,338.211 243.739 C 337.875 244.982,337.334 246.985,337.008 248.189 C 336.359 250.588,334.965 254.938,334.440 256.200 C 334.257 256.640,333.697 258.080,333.197 259.400 C 332.015 262.515,328.510 270.793,327.981 271.718 C 327.213 273.061,325.072 276.996,324.480 278.150 C 324.156 278.783,323.106 280.575,322.146 282.132 C 321.186 283.689,320.400 285.271,320.400 285.646 C 320.400 286.199,315.493 293.480,313.653 295.657 C 313.401 295.956,312.250 297.375,311.097 298.810 C 309.944 300.246,308.640 301.810,308.200 302.286 C 307.760 302.762,306.323 304.377,305.006 305.876 C 303.689 307.374,300.629 310.440,298.206 312.689 C 291.962 318.485,292.133 318.340,286.600 322.551 C 285.280 323.556,284.019 324.518,283.797 324.689 C 281.219 326.681,271.496 332.771,268.600 334.207 C 267.720 334.643,266.910 335.103,266.800 335.229 C 266.690 335.356,265.746 335.806,264.701 336.229 C 263.657 336.653,262.802 337.135,262.801 337.300 C 262.801 337.465,262.593 337.600,262.340 337.600 C 262.087 337.600,260.962 338.036,259.840 338.570 C 256.720 340.053,253.203 341.600,252.949 341.600 C 252.823 341.600,252.154 341.848,251.460 342.151 C 250.767 342.454,249.300 343.008,248.200 343.382 C 247.100 343.756,245.840 344.214,245.400 344.401 C 244.960 344.587,243.520 345.038,242.200 345.403 C 240.880 345.768,239.511 346.217,239.159 346.400 C 238.806 346.583,237.636 346.861,236.559 347.017 C 235.481 347.173,234.420 347.436,234.200 347.600 C 233.980 347.765,233.260 348.000,232.600 348.122 C 211.476 352.041,199.785 352.604,182.000 350.559 C 179.030 350.218,176.187 349.772,175.681 349.569 C 175.176 349.366,174.223 349.200,173.563 349.200 C 171.655 349.200,160.370 346.444,158.717 345.574 C 158.342 345.377,157.303 345.098,156.409 344.955 C 155.514 344.812,154.686 344.539,154.568 344.347 C 154.449 344.156,153.924 344.000,153.400 344.000 C 152.876 344.000,152.336 343.820,152.200 343.600 C 152.064 343.380,151.648 343.194,151.276 343.186 C 150.904 343.179,149.880 342.825,149.000 342.400 C 148.120 341.975,147.270 341.621,147.112 341.614 C 146.463 341.583,133.697 335.698,133.200 335.200 C 133.090 335.089,132.190 334.593,131.200 334.097 C 127.162 332.072,122.077 328.880,116.783 325.046 C 115.532 324.141,114.100 323.130,113.599 322.800 C 113.099 322.470,112.309 321.840,111.845 321.399 C 111.380 320.958,110.194 319.968,109.210 319.199 C 108.225 318.430,106.695 317.176,105.810 316.413 C 103.343 314.288,93.177 303.990,91.600 302.019 C 90.830 301.056,90.020 300.073,89.800 299.834 C 88.783 298.729,86.943 296.438,86.400 295.600 C 86.070 295.091,85.305 294.093,84.700 293.384 C 84.095 292.675,83.600 291.893,83.600 291.647 C 83.600 291.401,83.448 291.200,83.263 291.200 C 83.078 291.200,82.587 290.570,82.172 289.800 C 81.757 289.030,81.279 288.400,81.109 288.400 C 80.939 288.400,80.800 288.130,80.800 287.800 C 80.800 287.470,80.623 287.200,80.408 287.200 C 80.192 287.200,79.897 286.705,79.752 286.100 C 79.608 285.495,79.297 284.757,79.062 284.460 C 78.827 284.162,78.599 283.674,78.555 283.374 C 78.511 283.074,78.075 282.268,77.587 281.582 C 75.941 279.270,69.587 266.796,68.427 263.600 C 68.148 262.830,67.759 261.840,67.563 261.400 C 66.129 258.174,62.800 248.189,62.800 247.111 C 62.800 246.714,62.628 246.077,62.418 245.695 C 61.872 244.700,59.726 234.814,59.185 230.800 C 58.933 228.930,58.559 226.140,58.353 224.600 C 54.391 194.927,62.581 159.359,79.538 132.600 C 81.351 129.740,83.051 127.052,83.317 126.626 C 83.583 126.200,84.160 125.480,84.600 125.026 C 85.040 124.572,85.837 123.570,86.372 122.800 C 90.824 116.388,100.866 105.812,108.803 99.176 C 112.998 95.668,115.118 94.000,115.379 94.000 C 115.513 94.000,116.743 93.134,118.111 92.076 C 119.480 91.018,120.870 90.029,121.200 89.879 C 121.886 89.566,122.475 89.188,125.535 87.100 C 126.744 86.275,127.914 85.600,128.135 85.600 C 128.356 85.600,128.831 85.334,129.191 85.009 C 129.939 84.331,140.195 79.200,140.800 79.200 C 141.020 79.200,141.200 79.020,141.200 78.800 C 141.200 78.580,141.501 78.400,141.869 78.400 C 142.236 78.400,142.821 78.148,143.169 77.841 C 143.772 77.306,144.951 76.598,147.982 74.951 C 148.742 74.538,149.578 74.007,149.840 73.770 C 150.236 73.413,155.167 71.182,158.200 69.987 C 159.615 69.429,162.956 68.497,164.522 68.222 C 165.360 68.075,166.355 67.650,166.734 67.278 C 168.779 65.267,172.880 61.942,174.863 60.688 C 181.905 56.235,192.939 53.305,188.588 57.044 C 187.764 57.752,187.647 58.000,188.138 58.000 C 188.502 58.000,188.800 57.820,188.800 57.600 C 188.800 57.380,189.057 57.200,189.371 57.200 C 189.686 57.200,190.181 56.975,190.471 56.700 C 191.863 55.383,201.718 51.576,205.000 51.087 C 208.148 50.618,215.389 50.993,215.511 51.632 " stroke="none" fill="#ffffff" fill-rule="evenodd"></path></g></svg>